<?xml version="1.0" encoding="UTF-8" standalone="no"?>
<!-- Created with Inkscape (http://www.inkscape.org/) -->
<svg
   xmlns:dc="http://purl.org/dc/elements/1.1/"
   xmlns:cc="http://creativecommons.org/ns#"
   xmlns:rdf="http://www.w3.org/1999/02/22-rdf-syntax-ns#"
   xmlns:svg="http://www.w3.org/2000/svg"
   xmlns="http://www.w3.org/2000/svg"
   xmlns:xlink="http://www.w3.org/1999/xlink"
   xmlns:sodipodi="http://sodipodi.sourceforge.net/DTD/sodipodi-0.dtd"
   xmlns:inkscape="http://www.inkscape.org/namespaces/inkscape"
   width="255"
   height="255"
   id="svg2"
   sodipodi:version="0.32"
   inkscape:version="0.46"
   version="1.0"
   sodipodi:docname="icon.svg"
   inkscape:output_extension="org.inkscape.output.svg.inkscape"
   inkscape:export-filename="C:\Users\buus\inkscabe\icon.png"
   inkscape:export-xdpi="90"
   inkscape:export-ydpi="90">
  <defs
     id="defs4">
    <linearGradient
       id="linearGradient2585">
      <stop
         style="stop-color:#ff00ff;stop-opacity:1;"
         offset="0"
         id="stop2587" />
      <stop
         style="stop-color:#ffffff;stop-opacity:0;"
         offset="1"
         id="stop2589" />
    </linearGradient>
    <inkscape:perspective
       sodipodi:type="inkscape:persp3d"
       inkscape:vp_x="0 : 526.18109 : 1"
       inkscape:vp_y="0 : 1000 : 0"
       inkscape:vp_z="744.09448 : 526.18109 : 1"
       inkscape:persp3d-origin="372.04724 : 350.78739 : 1"
       id="perspective10" />
    <inkscape:perspective
       id="perspective2451"
       inkscape:persp3d-origin="372.04724 : 350.78739 : 1"
       inkscape:vp_z="744.09448 : 526.18109 : 1"
       inkscape:vp_y="0 : 1000 : 0"
       inkscape:vp_x="0 : 526.18109 : 1"
       sodipodi:type="inkscape:persp3d" />
    <inkscape:perspective
       id="perspective2569"
       inkscape:persp3d-origin="372.04724 : 350.78739 : 1"
       inkscape:vp_z="744.09448 : 526.18109 : 1"
       inkscape:vp_y="0 : 1000 : 0"
       inkscape:vp_x="0 : 526.18109 : 1"
       sodipodi:type="inkscape:persp3d" />
    <radialGradient
       inkscape:collect="always"
       xlink:href="#linearGradient2585"
       id="radialGradient2593"
       cx="58.116039"
       cy="147.45717"
       fx="58.115929"
       fy="147.45711"
       r="78.253294"
       gradientTransform="matrix(3.8023989,0.538377,-0.5599402,3.9544685,-78.809318,-426.83483)"
       gradientUnits="userSpaceOnUse" />
  </defs>
  <sodipodi:namedview
     id="base"
     pagecolor="#ffffff"
     bordercolor="#666666"
     borderopacity="1.0"
     gridtolerance="10000"
     guidetolerance="10"
     objecttolerance="10"
     inkscape:pageopacity="0.0"
     inkscape:pageshadow="2"
     inkscape:zoom="1.4"
     inkscape:cx="158.00954"
     inkscape:cy="105.54518"
     inkscape:document-units="px"
     inkscape:current-layer="layer1"
     showgrid="false"
     showguides="true"
     inkscape:guide-bbox="true"
     inkscape:window-width="640"
     inkscape:window-height="669"
     inkscape:window-x="207"
     inkscape:window-y="8">
    <sodipodi:guide
       orientation="1,0"
       position="127.5,162.12948"
       id="guide2383" />
    <sodipodi:guide
       orientation="0,1"
       position="101.01525,127.5"
       id="guide2385" />
    <sodipodi:guide
       orientation="1,0"
       position="0,169.70563"
       id="guide2457" />
    <sodipodi:guide
       orientation="1,0"
       position="255,209.10158"
       id="guide2459" />
    <sodipodi:guide
       orientation="0,1"
       position="-132.32998,0"
       id="guide2461" />
    <sodipodi:guide
       orientation="0,1"
       position="-30.304576,254.55844"
       id="guide2463" />
  </sodipodi:namedview>
  <metadata
     id="metadata7">
    <rdf:RDF>
      <cc:Work
         rdf:about="">
        <dc:format>image/svg+xml</dc:format>
        <dc:type
           rdf:resource="http://purl.org/dc/dcmitype/StillImage" />
      </cc:Work>
    </rdf:RDF>
  </metadata>
  <g
     inkscape:label="Layer 1"
     inkscape:groupmode="layer"
     id="layer1">
    <path
       style="fill:url(#radialGradient2593);fill-rule:evenodd;stroke:#000000;stroke-width:1px;stroke-linecap:butt;stroke-linejoin:miter;stroke-opacity:1;fill-opacity:1"
       d="M 127.5,-4.6092043 C 125.8531,11.873513 124.03863,36.505571 117.68277,64.333707 C 115.3493,69.855461 111.02637,85.564608 100.0051,83.779144 C 87.005372,80.064862 87.471206,66.845462 86.115505,59.535483 C 85.558948,50.107392 83.348217,41.184378 88.388348,31.756287 C 75.568914,31.70795 67.536082,41.232817 64.144687,60.040559 C 61.958051,68.000325 62.198633,81.724736 70.710678,115.09387 C 72.109986,123.36041 71.033499,130.74765 49.79786,158.82775 C 45.494565,164.51805 43.95926,172.50071 40.911178,180.75379 C 38.186051,198.8602 40.673711,215.10538 56.688466,228.52682 C 73.300331,240.33334 91.360943,248.38659 110.6117,249.94924 C 129.22416,250.13036 148.16945,253.97266 166.17009,247.42386 C 175.71349,242.80443 186.75858,235.46765 191.06677,216.79277 C 192.49461,204.52408 192.54249,191.94156 186.62568,181.76394 C 180.05969,171.83078 177.11341,159.20387 175.26147,145.90353 C 178.11362,131.80425 184.05393,121.82251 190.91883,113.07357 C 194.38795,106.493 195.28244,99.320766 195.46452,94.638283 C 194.32148,84.866382 190.18092,80.259109 186.37314,78.728381 C 183.97883,88.462439 185.43011,97.647128 169.70563,109.2855 C 153.40063,113.25285 142.73856,99.865609 142.93659,87.314677 L 154.04826,-3.8515883"
       id="path2575"
       sodipodi:nodetypes="cccccccsccccccccccccc" />
    <path
       style="fill:#000000;fill-rule:evenodd;stroke:#000000;stroke-width:1px;stroke-linecap:butt;stroke-linejoin:miter;stroke-opacity:1;fill-opacity:1"
       d="M 134.30357,-3.9285714 C 131.11141,21.507657 128.96297,54.594019 118.375,78.25 C 114.20297,86.960014 102.9147,93.414219 93.84375,87.875 C 81.886058,81.416513 80.256884,66.363795 79.592691,54.160755 C 78.866686,50.071276 79.451122,44.008334 79.0625,41.125 C 70.034168,49.964206 69.005381,64.008135 69.1875,76.09375 C 69.889406,91.53362 76.73212,106.09218 76.90625,121.5625 C 74.20385,144.8617 50.439016,158.68444 47.0625,181.8125 C 43.000991,198.31288 49.00812,217.07271 63.6875,226.25 C 80.387902,237.44663 99.856525,244.40996 120.1521,244.53268 C 137.76889,244.92831 157.70946,248.26427 172.6875,236.5625 C 189.20527,223.02213 189.5817,196.71111 178.5,179.53125 C 171.48399,164.3975 165.62919,145.92243 173.75,129.96875 C 178.37727,117.70466 190.66361,107.89673 189.1875,93.875 C 185.19092,104.19913 176.87459,115.47529 164.875,116.15625 C 147.96391,116.70369 133.61007,99.335699 137.5,82.71875 C 140.65966,55.770693 145.13514,22.353551 148.29018,-4.6383929 C 143.9767,-4.0723726 137.17366,-6.0733472 134.30357,-3.9285714 z"
       id="path2577"
       sodipodi:nodetypes="cccccccccccccccccc" />
  </g>
</svg>
